# xmcd
#
# Track frame offsets:
#	150
#	17810
#	37085
#	51420
#	67369
#	79796
#	94571
#	114384
#	127398
#	140755
#	160079
#
# Disc length: 2544 seconds
#
# Revision: 1
# Processed by: cddbd v1.5.2PL0 Copyright (c) Steve Scherf et al.
# Submitted via: audiograbber 1.83.01
#
DISCID=a309ee0b
DTITLE=Average Soul - Lay It Down
DYEAR=2004
DGENRE=Country
TTITLE0=Woodstock '69
TTITLE1=Holy Donuts
TTITLE2=Not Now or Ever
TTITLE3=Lay It Down
TTITLE4=Living in the San Joaquin
TTITLE5=Raised Me from the Dead
TTITLE6=A Different Way
TTITLE7=Do What You Gotta Do
TTITLE8=Blissful Note
TTITLE9=All I Need to See is You
TTITLE10=Turn the Tide
EXTD=Words and Music by Michael Cassidy
EXTT0=
EXTT1=
EXTT2=
EXTT3=
EXTT4=
EXTT5=
EXTT6=
EXTT7=
EXTT8=
EXTT9=
EXTT10=
PLAYORDER=
